# xmcd
#
# Track frame offsets:
#	300
#	19225
#	35255
#	61370
#	75880
#	91225
#	102270
#	121203
#	142133
#	157848
#	175000
#	193620
#	207845
#	224725
#
# Disc length: 3213 seconds
#
# Revision: 0
# Processed by: cddbd v1.4PL0 Copyright (c) Steve Scherf et al.
# Submitted via: audiograbber 1.82.02
#
DISCID=b90c890e
DTITLE=Kid Andersen - Rock Awhile
DYEAR=2003
DGENRE=Blues
TTITLE0=Rock Awhile
TTITLE1=Walkin' Thru The Park
TTITLE2=Someday You Got To Pay
TTITLE3=Lil' Earthquake
TTITLE4=Bald Headed Woman
TTITLE5=Aquavit Boogie
TTITLE6=Hangover Day
TTITLE7=Hobnobbing With The Hoy Poy
TTITLE8=I Really Love My Monkey
TTITLE9=All Your Love
TTITLE10=You Ain't So Pretty No More
TTITLE11=She's Got It
TTITLE12=I'm Broke
TTITLE13=Stompin' With The Kid
EXTD=Nowegian Blues Artist
EXTT0=
EXTT1=
EXTT2=
EXTT3=
EXTT4=
EXTT5=
EXTT6=
EXTT7=
EXTT8=
EXTT9=
EXTT10=
EXTT11=
EXTT12=
EXTT13=
PLAYORDER=
